<svg xmlns="http://www.w3.org/2000/svg" width="500" height="350"><defs><linearGradient id="a" gradientUnits="userSpaceOnUse" x1="257.285" y1="326.67" x2="257.285" y2="292.617"><stop offset="0" stop-color="#FCF5F1"/><stop offset=".005" stop-color="#FCF5F1"/><stop offset="1" stop-color="#FCE1E3"/></linearGradient><linearGradient id="b" gradientUnits="userSpaceOnUse" x1="388.341" y1="292.617" x2="388.341" y2="167.419"><stop offset="0" stop-color="#466DE5"/><stop offset="1" stop-color="#78BFFF"/></linearGradient><linearGradient id="c" gradientUnits="userSpaceOnUse" x1="411.733" y1="292.617" x2="411.733" y2="205.296"><stop offset="0" stop-color="#466DE5"/><stop offset="1" stop-color="#78BFFF"/></linearGradient><linearGradient id="d" gradientUnits="userSpaceOnUse" x1="195.279" y1="271.632" x2="137.931" y2="214.284"><stop offset="0" stop-color="#466DE5"/><stop offset="1" stop-color="#78BFFF"/></linearGradient><linearGradient id="e" gradientUnits="userSpaceOnUse" x1="112.991" y1="292.617" x2="112.991" y2="184.956"><stop offset="0" stop-color="#466DE5"/><stop offset="1" stop-color="#78BFFF"/></linearGradient><linearGradient id="f" gradientUnits="userSpaceOnUse" x1="90.219" y1="291.183" x2="94.462" y2="227.702"><stop offset="0" stop-color="#466DE5"/><stop offset="1" stop-color="#78BFFF"/></linearGradient><linearGradient id="g" gradientUnits="userSpaceOnUse" x1="88.167" y1="295.645" x2="106.46" y2="263.962"><stop offset="0" stop-color="#466DE5"/><stop offset="1" stop-color="#78BFFF"/></linearGradient><linearGradient id="j" gradientUnits="userSpaceOnUse" x1="330.194" y1="329.706" x2="206.861" y2="116.086"><stop offset="0" stop-color="#B3D3F4"/><stop offset="1" stop-color="#D3DCED"/></linearGradient><linearGradient id="l" gradientUnits="userSpaceOnUse" x1="273.288" y1="109.528" x2="277.613" y2="286.08"><stop offset="0" stop-color="#FFF"/><stop offset="1" stop-color="#CBCBCB"/></linearGradient><linearGradient id="n" gradientUnits="userSpaceOnUse" x1="330.194" y1="329.706" x2="220.706" y2="140.067"><stop offset="0" stop-color="#CDE8FF"/><stop offset="1" stop-color="#EEE7E9"/></linearGradient><linearGradient id="p" gradientUnits="userSpaceOnUse" x1="329.049" y1="353.021" x2="221.852" y2="245.824"><stop offset="0" stop-color="#CDE8FF"/><stop offset="1" stop-color="#EEE7E9"/></linearGradient><linearGradient id="q" gradientUnits="userSpaceOnUse" x1="379.628" y1="308.955" x2="347.853" y2="268.73"><stop offset="0" stop-color="#466DE5"/><stop offset="1" stop-color="#78BFFF"/></linearGradient><clipPath id="h"><path d="M363.009 65.139h36.827v27.939h-36.827z"/></clipPath><clipPath id="i"><path d="M127.905 89.658h29.691v18.802h-29.691z"/></clipPath><clipPath id="m"><path d="M168.253 170.351h214.394v115.752H168.253z"/></clipPath><clipPath id="o"><path d="M168.253 198.363h214.394v101.06H168.253z"/></clipPath><filter id="k"><feGaussianBlur in="SourceAlpha" stdDeviation="2.5"/><feOffset dy="2" result="offsetblur"/><feFlood flood-color="#000"/><feComposite in2="offsetblur" operator="in"/></filter></defs><path d="M80.39 292.617c-30.756 0 7.321 12.129 26.55 13.068 9.998.489 17.977.41 25.926.331 9.896-.099 19.746-.198 33.387.798 16.025 1.172 21.172 15.63 42.374 18.789 25.172 3.75 57.09-3.306 82.117-7 28.184-4.16 46.49-1.253 61.995 1.655 16.809 3.15 30.327 6.301 49.573.448 17.204-5.231 16.801-8.107 23.714-15.021 6.913-6.913 28.015-13.068 16.226-13.068z" fill="url(#a)"/><path d="M395.911 177.012c-31.376 27.439-40.38 75.778-39.223 115.605h26.911c5.73-27.668 28.128-75.682 34.92-103.11 1.23-4.967 2.098-10.15 1.206-15.187-.501-2.823-2.149-6.627-5.474-6.868a12.738 12.738 0 00-.913-.032c-6.759 0-12.607 5.378-17.427 9.592z" fill="url(#b)"/><path d="M409.535 178.043c-20.952 27.085-32.511 61.13-35.525 95.062-.555 6.254-.831 12.554-.422 18.826.023.347.554.355.547 0-.592-29.417 6.221-59.576 18.98-86.039 4.683-9.71 10.276-18.974 16.733-27.608.134-.179-.175-.42-.313-.241" fill="#92D0FF"/><path d="M406.983 224.254c-14.771 21.536-19.183 42.588-23.384 68.364h42.975c2.66-10.263 13.293-23.401 13.293-34.339 0-6.225-7.481-5.13-10.523-3.253-10.357 6.393-13.863 20.778-14.687 25.829 2.725-16.768 8.489-33.126 16.399-48.163 5.928-11.27 13.02-26.371 3.026-27.343a11.186 11.186 0 00-1.102-.053c-9.118.001-20.157 10.444-25.997 18.958z" fill="url(#c)"/><g fill="#92D0FF"><path d="M430.863 213.139c-5.936 7.543-10.187 16.57-14.181 25.238-5.264 11.422-9.895 23.214-13.308 35.327-1.672 5.933-3.096 11.99-3.575 18.149-.021.26.367.249.398 0 1.437-11.598 4.984-22.898 9.019-33.826 4.143-11.219 8.985-22.221 14.66-32.752 2.2-4.084 4.507-8.177 7.349-11.857.158-.205-.2-.485-.362-.279M433.936 259.044c-8.577 8.615-12.379 21.875-14.525 33.508-.057.307.403.443.474.131 2.656-11.617 5.872-24.468 14.344-33.346.184-.193-.104-.482-.293-.293"/></g><path d="M163.316 189.06c-5.422 4.575-9.252 11-11.919 17.487-5.721 13.919-10.135 35.818-4.06 86.07h26.957c.557-24.617 6.719-50.894 9.041-75.478.817-8.648 1.403-33.229-9.563-33.227-2.718.001-6.147 1.511-10.456 5.148z" fill="url(#d)"/><path d="M80.385 187.589c-10.202 5.921-3.303 17.274 1.057 24.496 8.138 13.476 20.571 23.713 29.609 36.541 8.987 12.759 16.043 28.183 16.733 43.991h23.112c-.149-22.333-2.073-45.884-11.66-66.056-5.428-11.42-11.93-22.984-21.823-31.147-6.533-5.39-16.941-10.459-26.479-10.458-3.746 0-7.359.782-10.549 2.633z" fill="url(#e)"/><path d="M54.311 233.087c-.636 3.772 2.768 10.864 10.924 17.321 11.338 8.98 42.665 22.94 46.442 42.209h18.263c.044-16.091-8.154-33.078-21.101-45.648-8.458-8.211-18.577-15.907-30.115-19.295-2.634-.772-7.347-1.744-11.944-1.744-5.858 0-11.528 1.577-12.469 7.157z" fill="url(#f)"/><g fill="#92D0FF"><path d="M61.985 233.742c20.574 5.727 40.001 19.8 50.387 38.626 3.427 6.213 5.798 12.96 7.156 19.918.053.274.459.155.414-.114-3.915-23.582-21.584-42.357-42.425-52.813-4.94-2.478-10.102-4.513-15.434-5.971-.229-.062-.326.291-.098.354M85.783 194.011c10.489 5.654 19.059 14.671 25.954 24.259 9.22 12.819 15.787 27.497 19.904 42.711 2.767 10.223 4.317 20.697 5.12 31.248.034.452.732.462.711 0-1.441-31.635-13.434-65.332-36.68-87.587-4.448-4.258-9.362-8.077-14.82-10.955-.213-.112-.402.209-.189.324M171.384 188.703c-10.56 25.156-13.092 53.617-13.785 80.63-.196 7.628-.246 15.271.059 22.896.016.395.618.399.617 0-.077-27.517.613-55.212 6.968-82.123 1.707-7.233 3.855-14.367 6.593-21.278.112-.283-.338-.397-.452-.125"/></g><path d="M89.353 255.814c-4.566.08-5.605 4.472-5.073 8.425 1.393 10.363 7.14 13.527 9.371 24.733-1.113-4.245-7.963-18.945-13.977-13.324-6.615 6.181 3.249 16.97 3.249 16.97h31.678c-1.942-8.68-3.648-17.727-8.823-25.205-3.357-4.853-10.176-11.6-16.282-11.601l-.143.002z" fill="url(#g)"/><path d="M80.742 278.544c3.63 4.356 6.709 8.84 8.728 14.166.098.258.494.161.422-.117-1.414-5.472-5.179-10.179-8.896-14.303-.157-.174-.4.079-.254.254M90.249 262.336c7.965 8.312 11.618 19.831 15.573 30.374.097.259.502.159.422-.116-1.381-4.739-3.204-9.389-5.229-13.886-2.683-5.957-5.862-11.956-10.512-16.626-.163-.164-.414.087-.254.254" fill="#92D0FF"/><path d="M289.553 210.719h2" stroke="#B3D3F4" fill="none"/><path d="M295.543 210.719h107.08c17.488 0 31.665-14.177 31.665-31.665s-14.177-31.665-31.665-31.665H161.225c-9.277 0-16.796-7.519-16.796-16.796h0c0-9.276 7.519-16.796 16.796-16.796h202.834c8.214 0 14.872-6.658 14.872-14.872 0-8.214-6.658-14.873-14.872-14.873H178.447a8.182 8.182 0 110-16.364h49.972" stroke="#B3D3F4" stroke-dasharray="3.99,3.99" fill="none"/><path d="M230.413 67.688h2" stroke="#B3D3F4" fill="none"/><path d="M245.186 41.242c-9.383-1.583-18.272 4.74-19.855 14.123-.975 5.783 1.06 11.373 4.957 15.186l-2.326 4.722 5.22-2.438a17.16 17.16 0 006.272 2.384c9.383 1.583 18.272-4.74 19.855-14.122 1.583-9.383-4.74-18.272-14.123-19.855" fill="#F3FAFF"/><path d="M234.643 66.306l-1.78-2.133a1.94 1.94 0 01.248-2.732l2.049-1.71a1.938 1.938 0 012.731.247s.948 1.423 2.058 1.169c1.265-.289 4.013-2.295 5.492-3.85 1.043-1.095-.709-3.026-.709-3.026a1.94 1.94 0 01.246-2.732l2.049-1.71a1.94 1.94 0 012.733.247l1.78 2.133c4.011 4.809-13.401 18.287-16.897 14.097" fill="#B3D3F4"/><path d="M320.252 67.356c2.553-2.449 3.61-4.967 7.127-5.754.719-.161 1.48-.252 2.1-.638 1.712-1.064 1.363-3.49 1.747-5.411.757-3.785 5.702-6.178 9.326-4.513 1.518.698 2.894 1.983 4.573 1.869 3.356-.229 2.954-4.369 5.248-6.73 2.167-2.23 6.58-2.521 9.396-1.108 1.925.967 3.65 2.339 4.944 4.016 1.365 1.769 1.304 4.501 2.312 6.45.959 1.884 3.258 2.703 4.261 4.556.869 1.607 1.136 3.317.428 5.015-1.433 3.44-5.639 5.923-9.452 5.923H310.75s6.658-.948 9.502-3.675M196.876 42.894c-2.158-2.07-3.051-4.198-6.023-4.863-.608-.136-1.252-.213-1.775-.539-1.447-.899-1.152-2.95-1.477-4.574-.64-3.199-4.819-5.221-7.882-3.814-1.283.59-2.446 1.677-3.865 1.58-2.836-.193-2.496-3.692-4.435-5.688-1.831-1.885-5.561-2.131-7.941-.936-1.627.816-3.085 1.976-4.179 3.394-1.154 1.494-1.102 3.804-1.954 5.451-.811 1.592-2.754 2.284-3.601 3.851-.735 1.358-.96 2.803-.362 4.238 1.211 2.908 4.766 5.006 7.989 5.006h43.536s-5.628-.801-8.031-3.106" fill="#F3FAFF"/><path d="M397.695 89.91l-30.258-16.192 7.968-23.651 36.827 19.067z" fill="#CFE0F5"/><path d="M412.233 69.134l-36.828-19.067 26.252-5.606z" fill="#CFE0F5"/><path d="M396.529 90.225l-29.482-15.264 12.894-24.903 29.481 15.264z" fill="#FFF4E1"/><path d="M375.405 50.067L363.008 74.01l24.175-1.592zM412.233 69.134l-12.396 23.943-12.654-20.659z" fill="#E6F1FC"/><g clip-path="url(#h)"><path d="M399.836 93.078l-36.828-19.067 28.006-8.872z" fill="#E6F1FC"/></g><path d="M399.836 93.078l-36.828-19.067 26.252-5.605z" fill="#E6F1FC"/><path d="M154.845 99.923l-24.655 6.173-7.398-16.939 29.69-7.865zM152.482 81.292l-29.69 7.864 11.612-16.137z" fill="#CFE0F5"/><path d="M154.361 100.676l-23.768 6.296-5.318-20.077 23.768-6.296z" fill="#FFF4E1"/><path d="M122.793 89.157l5.113 19.303 12.469-12.902zM152.483 81.292l5.113 19.303-17.221-5.038z" fill="#E6F1FC"/><g clip-path="url(#i)"><path d="M157.595 100.595l-29.69 7.865 10.949-18.803z" fill="#E6F1FC"/></g><path d="M157.595 100.595l-29.69 7.865 11.612-16.138z" fill="#E6F1FC"/><path d="M168.254 170.351v129.071h214.393V170.351L275.45 76.487z" fill="url(#j)"/><g><path d="M371.811 109.506v176.597H179.09V109.506h192.721z" filter="url(#k)" fill="rgba(0,0,0,0.65)"/><path d="M179.09 286.103h192.721V109.506H179.09z" fill="url(#l)"/></g><g clip-path="url(#m)" opacity=".55"><path d="M275.45 252.293l-107.197-81.942v115.751h214.394V170.351z" fill="#C9D3F4"/></g><path d="M275.45 265.635l-107.196-95.284v129.071h214.393V170.351z" fill="url(#n)"/><g clip-path="url(#o)" opacity=".35"><path d="M275.45 198.363l-107.197 101.06h214.394z" fill="#C9D3F4"/></g><path d="M168.254 299.422h214.393L275.45 208.213z" fill="url(#p)"/><path d="M350.18 273.102c-4.518 9.668-6.784 21.278-4.614 32.584h39.029s7.907-15.985-.21-21.939c-8.288-6.078-13.594 11.739-13.912 17.224-.033-14.484 6.261-18.575 5.405-31.972-.326-5.111-2.695-10.789-8.34-10.892a5.224 5.224 0 00-.177-.003c-7.523.001-14.249 8.724-17.181 14.998z" fill="url(#q)"/></svg>