<?xml version="1.0" encoding="UTF-8"?>
<!DOCTYPE svg PUBLIC "-//W3C//DTD SVG 1.1//EN" "http://www.w3.org/Graphics/SVG/1.1/DTD/svg11.dtd">
<svg version="1.1" xmlns="http://www.w3.org/2000/svg" xmlns:xlink="http://www.w3.org/1999/xlink" x="0" y="0" width="343.5" height="207.5" viewBox="0, 0, 687, 415">
  <defs>
    <linearGradient id="Gradient_1" gradientUnits="userSpaceOnUse" x1="53.029" y1="132.349" x2="191.832" y2="10.799">
      <stop offset="0" stop-color="#DBFCFF"/>
      <stop offset="0.995" stop-color="#CCD8FF"/>
      <stop offset="1" stop-color="#CCD8FF"/>
    </linearGradient>
    <linearGradient id="Gradient_2" gradientUnits="userSpaceOnUse" x1="377.288" y1="326.248" x2="450.887" y2="326.248">
      <stop offset="0" stop-color="#CCFBFF"/>
      <stop offset="1" stop-color="#CCD8FF"/>
    </linearGradient>
    <linearGradient id="Gradient_3" gradientUnits="userSpaceOnUse" x1="129.992" y1="170.798" x2="44.249" y2="29.983">
      <stop offset="0" stop-color="#CCFBFF"/>
      <stop offset="1" stop-color="#CCD8FF"/>
    </linearGradient>
    <linearGradient id="Gradient_4" gradientUnits="userSpaceOnUse" x1="405.863" y1="-6.092" x2="619.559" y2="375.415">
      <stop offset="0" stop-color="#40D5E6"/>
      <stop offset="1" stop-color="#5577FF"/>
    </linearGradient>
    <clipPath id="Clip_1">
      <path d="M451.992,0.855 C451.992,0.855 596.71,79.195 484.455,182.296 C387.099,271.706 368.596,310.395 425.662,354.987 C443.157,368.656 464.38,373.315 487.428,373.315 C526.785,373.315 571.481,359.74 612.144,354.27 C622.398,352.892 632.396,352.028 641.983,352.028 C652.286,352.028 662.116,353.025 671.292,355.452 C676.504,356.738 681.464,358.801 686.312,361.071 L686.312,0.855 L451.992,0.855 z M554.879,177.96 C561.02,177.96 564.141,179.691 564.141,179.691 C564.141,179.691 565.677,180.328 566.988,193.986 L595.401,193.986 C597.438,193.986 599.095,195.643 599.095,197.679 L599.095,224.593 C599.095,226.63 597.438,228.288 595.401,228.288 L594.273,228.288 L594.273,230.815 C594.273,232.965 592.529,234.709 590.377,234.709 L568.309,234.709 C568.128,240.174 567.726,244.04 567.063,244.808 C566.276,245.719 555.892,249.895 544.162,254.413 L544.162,254.415 C528.136,260.587 510.06,266.427 510.06,266.427 L505.945,257.606 C505.945,257.606 524.874,247.32 537.666,240.107 C542.875,237.169 547.065,234.741 548.545,233.724 C547.744,233.011 547.24,231.972 547.24,230.815 L547.24,206.569 C546.036,198.688 544.941,190.747 544.731,189.175 C544.339,186.237 545.71,178.401 553.057,178.009 C553.691,177.975 554.298,177.96 554.879,177.96 z M567.039,194.525 C567.147,195.685 567.253,196.936 567.357,198.284 C567.372,198.485 567.388,198.687 567.403,198.89 L590.377,198.89 C592.529,198.89 594.273,200.634 594.273,202.786 L594.273,227.748 L595.401,227.748 C597.14,227.748 598.556,226.333 598.556,224.593 L598.556,197.679 C598.556,195.94 597.14,194.525 595.401,194.525 L567.039,194.525 z"/>
    </clipPath>
    <linearGradient id="Gradient_5" gradientUnits="userSpaceOnUse" x1="506.562" y1="187.184" x2="348.183" y2="142.374">
      <stop offset="0" stop-color="#FF9F55"/>
      <stop offset="1" stop-color="#FFD255"/>
    </linearGradient>
    <linearGradient id="Gradient_6" gradientUnits="userSpaceOnUse" x1="350.507" y1="249.355" x2="317.88" y2="182.483">
      <stop offset="0" stop-color="#FF9F55"/>
      <stop offset="1" stop-color="#FFD255"/>
    </linearGradient>
    <linearGradient id="Gradient_7" gradientUnits="userSpaceOnUse" x1="518.838" y1="274.645" x2="395.059" y2="115.27">
      <stop offset="0" stop-color="#FF9F55"/>
      <stop offset="1" stop-color="#FFD255"/>
    </linearGradient>
    <linearGradient id="Gradient_8" gradientUnits="userSpaceOnUse" x1="566.988" y1="211.137" x2="613.519" y2="211.137">
      <stop offset="0" stop-color="#FF9F55"/>
      <stop offset="1" stop-color="#FFD255"/>
    </linearGradient>
    <linearGradient id="Gradient_9" gradientUnits="userSpaceOnUse" x1="415.837" y1="276.579" x2="616.522" y2="276.579">
      <stop offset="0" stop-color="#40D5E6"/>
      <stop offset="1" stop-color="#5577FF"/>
    </linearGradient>
    <linearGradient id="Gradient_10" gradientUnits="userSpaceOnUse" x1="301.318" y1="334.032" x2="471.684" y2="334.032">
      <stop offset="0" stop-color="#40D5E6"/>
      <stop offset="1" stop-color="#5577FF"/>
    </linearGradient>
    <linearGradient id="Gradient_11" gradientUnits="userSpaceOnUse" x1="547.24" y1="216.799" x2="594.273" y2="216.799">
      <stop offset="0" stop-color="#FF9F55"/>
      <stop offset="1" stop-color="#FFD255"/>
    </linearGradient>
    <linearGradient id="Gradient_12" gradientUnits="userSpaceOnUse" x1="547.781" y1="216.799" x2="594.814" y2="216.799">
      <stop offset="0" stop-color="#EDD6C5"/>
      <stop offset="1" stop-color="#EDE7C5"/>
    </linearGradient>
    <linearGradient id="Gradient_13" gradientUnits="userSpaceOnUse" x1="641.451" y1="64.638" x2="596.487" y2="165.02">
      <stop offset="0" stop-color="#40D5E6"/>
      <stop offset="1" stop-color="#5577FF"/>
    </linearGradient>
    <linearGradient id="Gradient_14" gradientUnits="userSpaceOnUse" x1="632.437" y1="383.102" x2="655.615" y2="289.746">
      <stop offset="0" stop-color="#40D5E6"/>
      <stop offset="1" stop-color="#5577FF"/>
    </linearGradient>
  </defs>
  <g id="Layer_1">
    <path d="M194.933,2.976 C194.933,2.976 166.179,62.339 94.561,84.037 C22.942,105.737 8.293,152.553 0.06,183.841 L0.06,0.852 L194.933,2.976 z" fill="url(#Gradient_1)"/>
    <path d="M377.288,326.249 C377.288,346.573 393.763,363.048 414.086,363.048 C434.411,363.048 450.886,346.573 450.886,326.249 C450.886,305.925 434.411,289.45 414.086,289.45 C393.763,289.45 377.288,305.925 377.288,326.249 z" fill="url(#Gradient_2)"/>
    <path d="M21.672,93.29 C21.672,127.048 49.039,154.415 82.798,154.415 C116.556,154.415 143.923,127.048 143.923,93.29 C143.923,59.532 116.556,32.164 82.798,32.164 C49.039,32.164 21.672,59.532 21.672,93.29 z" fill="url(#Gradient_3)"/>
    <g clip-path="url(#Clip_1)">
      <path d="M451.992,0.855 C451.992,0.855 596.71,79.195 484.455,182.296 C387.099,271.706 368.596,310.395 425.662,354.987 C443.157,368.656 464.38,373.315 487.428,373.315 C526.785,373.315 571.481,359.74 612.144,354.27 C622.398,352.892 632.396,352.028 641.983,352.028 C652.286,352.028 662.116,353.025 671.292,355.452 C676.504,356.738 681.464,358.801 686.312,361.071 L686.312,0.855 L451.992,0.855 z M554.879,177.96 C561.02,177.96 564.141,179.691 564.141,179.691 C564.141,179.691 565.677,180.328 566.988,193.986 L595.401,193.986 C597.438,193.986 599.095,195.643 599.095,197.679 L599.095,224.593 C599.095,226.63 597.438,228.288 595.401,228.288 L594.273,228.288 L594.273,230.815 C594.273,232.965 592.529,234.709 590.377,234.709 L568.309,234.709 C568.128,240.174 567.726,244.04 567.063,244.808 C566.276,245.719 555.892,249.895 544.162,254.413 L544.162,254.415 C528.136,260.587 510.06,266.427 510.06,266.427 L505.945,257.606 C505.945,257.606 524.874,247.32 537.666,240.107 C542.875,237.169 547.065,234.741 548.545,233.724 C547.744,233.011 547.24,231.972 547.24,230.815 L547.24,206.569 C546.036,198.688 544.941,190.747 544.731,189.175 C544.339,186.237 545.71,178.401 553.057,178.009 C553.691,177.975 554.298,177.96 554.879,177.96 z M567.039,194.525 C567.147,195.685 567.253,196.936 567.357,198.284 C567.372,198.485 567.388,198.687 567.403,198.89 L590.377,198.89 C592.529,198.89 594.273,200.634 594.273,202.786 L594.273,227.748 L595.401,227.748 C597.14,227.748 598.556,226.333 598.556,224.593 L598.556,197.679 C598.556,195.94 597.14,194.525 595.401,194.525 L567.039,194.525 z" fill="url(#Gradient_4)"/>
    </g>
    <path d="M447.877,194.507 C431.486,205.814 408.952,201.676 397.645,185.285 C392.168,177.344 390.112,167.747 391.853,158.258 C393.595,148.771 398.927,140.53 406.868,135.053 C423.259,123.747 445.793,127.883 457.1,144.275 C468.406,160.666 464.269,183.201 447.877,194.507 z M427.426,201.69 C434.654,201.69 441.95,199.579 448.336,195.172 C465.095,183.613 469.326,160.575 457.765,143.816 C446.205,127.057 423.167,122.828 406.409,134.387 C389.65,145.947 385.419,168.985 396.98,185.744 C404.134,196.116 415.688,201.69 427.426,201.69 z M451.55,230.212 L451.313,230.299 C445.241,232.523 438.874,233.884 432.391,234.345 L432.138,234.363 L427.08,247.022 L398.433,241.763 L398.201,228.133 L397.971,228.026 C392.074,225.291 386.606,221.757 381.72,217.523 L381.529,217.357 L369.011,222.726 L352.474,198.752 L361.94,188.957 L361.853,188.72 C359.629,182.649 358.269,176.283 357.807,169.798 L357.789,169.545 L345.13,164.487 L350.389,135.84 L364.019,135.609 L364.126,135.378 C366.861,129.481 370.395,124.013 374.629,119.127 L374.795,118.936 L369.426,106.418 L393.4,89.881 L403.194,99.347 L403.432,99.26 C409.503,97.037 415.87,95.676 422.354,95.214 L422.607,95.197 L427.665,82.537 L456.312,87.797 L456.543,101.427 L456.774,101.534 C462.672,104.268 468.139,107.802 473.025,112.037 L473.216,112.203 L485.734,106.833 L502.271,130.808 L492.805,140.602 L492.892,140.839 C495.115,146.911 496.476,153.277 496.938,159.761 L496.956,160.014 L509.615,165.073 L504.355,193.719 L490.725,193.951 L490.619,194.181 C487.884,200.079 484.35,205.546 480.116,210.432 L479.95,210.623 L485.319,223.141 L461.344,239.678 L451.55,230.212 z M427.584,247.937 L432.701,235.133 C439.088,234.656 445.361,233.315 451.353,231.146 L461.258,240.72 L486.324,223.431 L480.892,210.77 C485.048,205.94 488.53,200.553 491.246,194.751 L505.032,194.516 L510.53,164.568 L497.726,159.451 C497.248,153.063 495.908,146.79 493.739,140.8 L503.313,130.893 L486.024,105.829 L473.363,111.26 C468.533,107.104 463.146,103.623 457.344,100.907 L457.109,87.121 L427.161,81.622 L422.044,94.426 C415.656,94.904 409.383,96.245 403.392,98.413 L393.486,88.839 L368.421,106.128 L373.852,118.79 C369.697,123.62 366.215,129.006 363.499,134.808 L349.713,135.043 L344.215,164.992 L357.019,170.109 C357.497,176.497 358.837,182.769 361.006,188.76 L351.432,198.666 L368.721,223.731 L381.382,218.299 C386.212,222.456 391.599,225.937 397.401,228.653 L397.636,242.439 L427.584,247.937" fill="url(#Gradient_5)"/>
    <path d="M360.271,261.587 C369.641,254.919 371.831,241.917 365.164,232.547 C358.495,223.177 345.494,220.987 336.123,227.655 C326.753,234.323 324.563,247.325 331.231,256.695 C337.899,266.065 350.901,268.255 360.271,261.587 z M310.824,258.902 C309.478,255.385 308.659,251.744 308.344,248.083 L301.043,245.29 L303.865,228.54 L311.679,228.291 C313.175,224.937 315.142,221.764 317.566,218.883 L314.381,211.75 L328.221,201.903 L333.916,207.248 C337.432,205.902 341.075,205.083 344.735,204.769 L347.529,197.467 L355.904,198.878 L364.279,200.29 L364.526,208.103 C367.881,209.599 371.054,211.566 373.934,213.99 L381.067,210.806 L390.915,224.645 L385.57,230.34 C386.916,233.857 387.735,237.498 388.049,241.159 L395.351,243.953 L392.529,260.703 L384.715,260.951 C383.218,264.305 381.251,267.478 378.828,270.359 L382.012,277.492 L375.092,282.415 L368.173,287.339 L362.477,281.994 C358.961,283.34 355.32,284.159 351.66,284.473 L348.866,291.775 L332.116,288.953 L331.868,281.139 C328.513,279.643 325.34,277.676 322.459,275.252 L315.327,278.436 L305.478,264.597 L310.824,258.902" fill="url(#Gradient_6)"/>
    <path d="M456.986,197.003 C470.163,187.626 473.243,169.344 463.866,156.167 C454.489,142.991 436.206,139.911 423.03,149.288 C409.853,158.665 406.773,176.947 416.15,190.123 C425.527,203.3 443.81,206.38 456.986,197.003 z M387.454,193.227 C385.561,188.283 384.41,183.161 383.967,178.014 L373.7,174.085 L377.668,150.532 L388.656,150.183 C390.76,145.465 393.526,141.004 396.934,136.954 L392.456,126.923 L411.917,113.074 L419.927,120.591 C424.871,118.698 429.993,117.546 435.139,117.105 L439.068,106.837 L450.845,108.822 L462.622,110.805 L462.97,121.793 C467.688,123.898 472.149,126.664 476.2,130.072 L486.23,125.594 L500.08,145.055 L492.562,153.064 C494.455,158.008 495.607,163.129 496.048,168.276 L506.316,172.206 L502.348,195.759 L491.36,196.108 C489.255,200.825 486.49,205.287 483.081,209.337 L487.559,219.368 L468.098,233.216 L460.089,225.7 C455.145,227.592 450.024,228.744 444.877,229.186 L440.948,239.454 L429.17,237.469 L417.394,235.485 L417.045,224.498 C412.329,222.393 407.867,219.627 403.816,216.219 L393.786,220.697 L379.937,201.236 L387.454,193.227" fill="url(#Gradient_7)"/>
    <path d="M513.825,55.042 L513.914,54.238 C512.3,54.061 510.661,53.949 509.04,53.904 L509.018,54.712 C510.617,54.756 512.234,54.868 513.825,55.042 z M499.402,55.231 C500.99,55.015 502.604,54.862 504.2,54.776 L504.156,53.968 C502.539,54.055 500.903,54.21 499.293,54.429 L499.402,55.231 z M523.279,56.869 L523.497,56.089 C521.932,55.653 520.332,55.276 518.743,54.969 L518.589,55.763 C520.158,56.066 521.736,56.438 523.279,56.869 z M489.992,57.283 C491.53,56.818 493.099,56.41 494.656,56.07 L494.484,55.28 C492.907,55.624 491.316,56.037 489.757,56.508 L489.992,57.283 z M532.315,60.199 L532.655,59.464 C531.182,58.783 529.664,58.153 528.144,57.592 L527.864,58.351 C529.365,58.904 530.862,59.526 532.315,60.199 z M540.697,64.938 L541.151,64.268 C539.809,63.359 538.413,62.494 536.999,61.695 L536.602,62.399 C537.996,63.187 539.373,64.041 540.697,64.938 z M548.201,70.972 L548.757,70.385 C547.584,69.271 546.347,68.189 545.08,67.17 L544.573,67.801 C545.823,68.806 547.042,69.872 548.201,70.972 z M554.595,78.165 L555.244,77.682 C554.277,76.386 553.238,75.113 552.155,73.896 L551.55,74.433 C552.618,75.633 553.642,76.889 554.595,78.165 z M559.646,86.354 L560.37,85.993 C559.648,84.546 558.848,83.109 557.992,81.722 L557.303,82.147 C558.147,83.514 558.935,84.929 559.646,86.354 z M563.135,95.329 L563.906,95.082 C563.863,94.948 563.822,94.813 563.783,94.678 C563.369,93.262 562.886,91.844 562.349,90.461 L561.595,90.754 C562.123,92.116 562.598,93.512 563.006,94.906 C563.047,95.046 563.09,95.187 563.135,95.329 z M567.807,103.911 L568.46,103.433 C567.436,102.034 566.555,100.682 565.842,99.414 L565.137,99.811 C565.866,101.107 566.764,102.486 567.807,103.911 z M574.086,111.374 L574.679,110.824 C573.486,109.541 572.432,108.36 571.458,107.212 L570.841,107.736 C571.824,108.893 572.885,110.083 574.086,111.374 z M580.912,118.318 L581.477,117.74 C580.211,116.501 579.085,115.383 578.037,114.319 L577.46,114.887 C578.513,115.955 579.642,117.077 580.912,118.318 z M587.927,125.051 L588.484,124.465 C587.288,123.33 586.115,122.212 584.967,121.114 L584.408,121.698 C585.555,122.797 586.73,123.915 587.927,125.051 z M594.965,131.748 L595.525,131.165 C594.339,130.029 593.166,128.911 592.008,127.81 L591.451,128.397 C592.608,129.497 593.781,130.614 594.965,131.748 z M601.923,138.521 L602.493,137.947 C601.384,136.846 600.249,135.732 599.024,134.54 L598.459,135.12 C599.683,136.31 600.816,137.422 601.923,138.521 z M608.717,145.449 L609.303,144.891 C608.22,143.752 607.082,142.576 605.922,141.394 L605.345,141.961 C606.502,143.139 607.637,144.313 608.717,145.449 z M615.275,152.593 L615.881,152.058 C614.834,150.871 613.739,149.654 612.626,148.443 L612.031,148.99 C613.139,150.198 614.231,151.41 615.275,152.593 z M621.52,160.005 L622.152,159.499 C621.155,158.256 620.115,156.993 619.06,155.742 L618.442,156.263 C619.492,157.508 620.528,158.768 621.52,160.005 z M627.372,167.724 L628.031,167.254 C627.105,165.957 626.134,164.639 625.145,163.335 L624.501,163.825 C625.486,165.122 626.452,166.434 627.372,167.724 z M632.745,175.778 L633.432,175.351 C632.59,173.994 631.704,172.617 630.797,171.259 L630.124,171.708 C631.026,173.058 631.908,174.427 632.745,175.778 z M637.541,184.178 L638.259,183.804 C637.518,182.386 636.733,180.949 635.923,179.534 L635.221,179.934 C636.025,181.341 636.806,182.769 637.541,184.178 z M641.668,192.921 L642.414,192.607 C641.79,191.129 641.121,189.634 640.426,188.164 L639.695,188.508 C640.384,189.969 641.048,191.454 641.668,192.921 z M645.032,201.98 L645.801,201.733 C645.31,200.202 644.774,198.654 644.208,197.132 L643.451,197.415 C644.011,198.924 644.543,200.46 645.032,201.98 z M647.554,211.301 L648.344,211.127 C647.997,209.553 647.606,207.962 647.183,206.4 L646.402,206.612 C646.822,208.162 647.209,209.74 647.554,211.301 z M649.186,220.818 L649.989,220.719 C649.791,219.116 649.553,217.496 649.281,215.904 L648.484,216.04 C648.754,217.62 648.991,219.227 649.186,220.818 z M649.906,230.444 L650.714,230.421 C650.669,228.803 650.586,227.168 650.466,225.562 L649.66,225.623 C649.779,227.215 649.862,228.838 649.906,230.444 z M650.539,240.159 C650.641,238.538 650.707,236.9 650.737,235.29 L649.928,235.276 C649.899,236.873 649.832,238.498 649.731,240.108 L650.539,240.159 z M649.505,249.845 C649.746,248.236 649.954,246.61 650.125,245.013 L649.321,244.927 C649.151,246.513 648.944,248.127 648.706,249.725 L649.505,249.845 z M647.686,259.412 C647.909,258.44 648.125,257.445 648.33,256.456 C648.454,255.85 648.574,255.248 648.688,254.646 L647.894,254.495 C647.78,255.092 647.661,255.691 647.537,256.292 C647.334,257.276 647.12,258.264 646.898,259.23 L647.686,259.412 z M645.142,268.802 C645.622,267.28 646.081,265.708 646.506,264.132 L645.726,263.921 C645.302,265.487 644.846,267.046 644.37,268.559 L645.142,268.802 z M641.813,277.945 C642.428,276.469 643.023,274.944 643.581,273.411 L642.82,273.134 C642.267,274.656 641.677,276.169 641.066,277.633 L641.813,277.945 z M637.624,286.731 C638.387,285.323 639.129,283.862 639.829,282.39 L639.099,282.042 C638.405,283.501 637.669,284.95 636.914,286.345 L637.624,286.731 z M632.526,295.025 C633.443,293.706 634.339,292.334 635.191,290.948 L634.501,290.525 C633.659,291.898 632.77,293.256 631.862,294.563 L632.526,295.025 z M626.504,302.679 C627.575,301.475 628.626,300.217 629.629,298.942 L628.994,298.442 C628,299.705 626.959,300.95 625.9,302.142 L626.504,302.679 z M619.6,309.551 C620.815,308.483 622.011,307.362 623.158,306.221 L622.587,305.648 C621.453,306.778 620.268,307.886 619.066,308.944 L619.6,309.551 z M611.904,315.527 C613.243,314.612 614.568,313.646 615.843,312.657 L615.347,312.017 C614.084,312.998 612.773,313.954 611.447,314.859 L611.904,315.527 z M603.546,320.54 C604.988,319.786 606.418,318.984 607.798,318.156 L607.382,317.462 C606.015,318.282 604.598,319.077 603.171,319.824 L603.546,320.54 z M594.677,324.58 C596.195,323.984 597.706,323.345 599.166,322.681 L598.832,321.945 C597.383,322.603 595.886,323.237 594.381,323.826 L594.677,324.58 z M585.434,327.671 C587.003,327.231 588.571,326.749 590.094,326.241 L589.837,325.473 C588.328,325.978 586.772,326.456 585.215,326.893 L585.434,327.671 z M575.94,329.873 C577.544,329.576 579.15,329.241 580.712,328.879 L580.53,328.091 C578.979,328.451 577.385,328.782 575.792,329.078 L575.94,329.873 z M566.29,331.245 C567.909,331.081 569.537,330.884 571.129,330.659 L571.015,329.858 C569.434,330.082 567.817,330.278 566.209,330.44 L566.29,331.245 z M541.961,331.324 L542.04,330.519 C539.028,330.224 537.272,329.915 537.254,329.912 L537.113,330.708 C537.13,330.711 538.914,331.026 541.961,331.324 z M556.56,331.841 C558.18,331.805 559.819,331.736 561.431,331.637 L561.382,330.83 C559.78,330.928 558.152,330.997 556.542,331.033 L556.56,331.841 z M551.687,331.86 L551.7,331.051 C550.082,331.026 548.455,330.97 546.864,330.883 L546.82,331.691 C548.422,331.778 550.06,331.834 551.687,331.86" fill="#FFFFFF"/>
    <path d="M594.273,228.288 L595.401,228.288 C597.438,228.288 599.095,226.63 599.095,224.593 L599.095,197.679 C599.095,195.643 597.438,193.986 595.401,193.986 L566.988,193.986 C567.005,194.163 567.022,194.343 567.039,194.525 L595.401,194.525 C597.14,194.525 598.556,195.94 598.556,197.679 L598.556,224.593 C598.556,226.333 597.14,227.748 595.401,227.748 L594.273,227.748 L594.273,228.288 z" fill="url(#Gradient_8)"/>
    <path d="M581.735,159.901 C581.735,159.901 535.785,142.782 519.698,169.848 C503.612,196.914 527.877,194.081 527.877,194.081 C527.877,194.081 529.828,206.131 551.397,176.321 C561.563,162.27 581.735,159.901 581.735,159.901" fill="#C7D683"/>
    <path d="M585.899,84.804 C585.899,84.804 545.344,74.385 521.544,126.346 C497.745,178.308 474.299,183.479 474.299,183.479 C474.299,183.479 565.441,195.235 585.899,84.804" fill="#A7B14C"/>
    <path d="M491.053,185.584 C495.382,202.256 532.336,167.873 534.697,138.559 C537.057,109.245 528.443,88.245 535.185,69.182 C535.185,69.182 469.739,103.487 491.053,185.584" fill="#58864A"/>
    <path d="M500.011,326.249 L529.236,329.552 L522.408,323.935 L500.011,326.249" fill="#DEDEDE"/>
    <path d="M500.011,326.249 L513.837,320.533 L519.325,324.253 L500.011,326.249" fill="#EDEDED"/>
    <path d="M522.515,328.792 L521.047,331.72 L500.011,326.249 L522.515,328.792" fill="#CDCDCD"/>
    <path d="M549.661,277.732 L488.977,277.732 C489.085,277.021 489.188,275.91 489.281,274.858 C489.866,268.535 490.236,264.337 490.236,264.337 C490.236,264.337 539.996,239.667 545.452,255.887 C547.202,261.093 548.443,267.604 549.298,274.858 C549.428,275.949 549.549,277.057 549.661,277.732" fill="#7A86C2"/>
    <path d="M498.305,193.876 C498.305,193.876 495.53,210.384 493.292,221.288 L493.292,221.289 C492.385,225.709 491.566,229.21 491.057,230.312 C490.417,231.699 485.207,237.293 478.831,243.859 C467.642,255.377 452.859,269.881 452.859,269.881 L447.08,258.912 C447.08,258.912 460.21,243.519 469.112,233.248 C473.233,228.495 476.446,224.838 477.035,224.312 C478.896,222.647 481.055,206.243 484.091,192.727 C487.128,179.21 493.212,171.741 493.212,171.741 L498.305,193.876" fill="#EDEDED"/>
    <path d="M478.831,243.859 C467.642,255.377 452.859,269.881 452.859,269.881 L447.08,258.912 C447.08,258.912 460.21,243.519 469.112,233.248 C471.84,234.585 476.85,237.778 478.831,243.859" fill="#F3B798"/>
    <path d="M548.642,267.743 C549.056,269.211 492.454,269.816 492.454,269.816 C492.454,269.816 494.857,252.159 496.228,248.045 C497.599,243.932 492.33,219.342 491.45,211.311 C490.744,204.885 488.977,176.132 493.212,171.741 C497.64,167.15 513.584,162.338 513.584,162.338 L536.83,163.201 C536.83,163.201 540.666,164.003 543.41,165.277 C546.152,166.55 561.834,172.136 564.381,179.972 C566.928,187.807 548.733,213 548.733,213 C548.733,213 548.697,214.132 548.642,215.988 L548.642,215.989 C548.572,218.462 548.468,222.223 548.372,226.301 C548.251,231.583 548.145,237.399 548.145,241.648 C548.145,251.637 548.23,266.274 548.642,267.743" fill="#EDEDED"/>
    <path d="M519.963,111.833 C519.963,111.833 499.785,107.282 504.394,132.676 C509.003,158.07 513.856,160.066 526.03,154.811 C538.204,149.555 537.114,133.286 537.726,125.307 C538.339,117.33 526.4,112.111 519.963,111.833" fill="#F3B798"/>
    <path d="M514.623,168.856 C514.623,168.856 523.56,178.331 537.684,169.72 C537.684,169.72 534.525,149.188 536.188,139.188 C537.85,129.187 517.76,154.683 517.76,154.683 C518.025,154.822 518.2,155.776 518.24,157.134 C518.275,158.286 518.213,159.725 518.029,161.204 C517.614,164.528 516.58,168.04 514.623,168.856" fill="#F3B798"/>
    <path d="M530.786,129.308 C531.051,127.068 535.479,126.247 535.836,129.605 C536.193,132.964 533.824,138.86 532.143,138.28 C530.462,137.7 530.418,132.397 530.786,129.308" fill="#F3B798"/>
    <path d="M536.744,138.338 C536.744,138.338 536.222,130.337 533.3,130.087 C530.377,129.837 529.928,133.06 529.928,133.06 L526.977,133.617 C526.977,133.617 527.91,126.604 524.992,125.378 C522.074,124.154 506.085,129.239 503.743,127.181 C501.401,125.123 502.502,110.898 506.739,108.951 C510.975,107.004 522.674,102.642 531.247,108.444 C531.247,108.444 537.928,107.682 538.919,113.075 C539.91,118.466 538.56,134.329 536.744,138.338" fill="#363B59"/>
    <path d="M518.029,161.204 C532.6,156.71 533.698,147.937 533.713,147.8 C528.915,156.044 518.24,157.134 518.24,157.134 C518.275,158.286 518.213,159.725 518.029,161.204" fill="#B78B73"/>
    <path d="M543.648,165.387 C543.648,165.387 532.978,186.628 515.74,185.257 C498.501,183.886 512.802,162.536 513.584,162.338 C514.446,162.121 531.264,157.931 543.648,165.387" fill="#F3B798"/>
    <path d="M567.063,244.808 C566.276,245.719 555.892,249.895 544.162,254.413 L544.162,254.415 C528.136,260.587 510.06,266.427 510.06,266.427 L505.945,257.606 C505.945,257.606 524.874,247.32 537.666,240.107 C543.708,236.699 548.38,233.977 549.041,233.348 C551.098,231.389 551.63,228.249 550.119,222.77 C548.606,217.293 545.123,192.114 544.731,189.175 C544.339,186.237 545.71,178.401 553.057,178.009 C560.403,177.618 564.141,179.691 564.141,179.691 C564.141,179.691 565.986,180.457 567.357,198.284 C568.728,216.11 568.923,242.653 567.063,244.808" fill="#EDEDED"/>
    <path d="M548.642,215.988 L548.642,215.989 C548.572,218.462 548.468,222.223 548.372,226.301 C541.204,208.728 545.345,194.704 545.415,194.467 C544.64,199.236 548.586,215.753 548.642,215.988" fill="#CFCFCF"/>
    <path d="M493.292,221.288 L493.292,221.289 C492.385,225.709 491.566,229.21 491.057,230.312 C488.609,218.46 490.812,203.288 490.812,203.288 C491.147,210.536 493.292,221.288 493.292,221.288" fill="#CFCFCF"/>
    <path d="M544.163,254.414 L544.162,254.415 C528.136,260.587 505.536,265.748 505.536,265.748 L502.334,258.048 C502.334,258.048 524.874,247.32 537.666,240.107 C537.666,240.107 542.32,242.373 544.163,254.414" fill="#F3B798"/>
    <path d="M502.334,258.048 C502.334,258.048 497.645,257.319 494.404,256.564 C491.895,255.98 485.659,256.785 484.071,258.394 C482.482,260.003 477.43,271.219 476.475,271.904 C475.52,272.588 476.964,274.172 478.643,273.376 C478.643,273.376 479.914,275.59 483.716,273.753 C487.519,271.916 490.369,270.599 492.36,269.892 C494.351,269.186 505.945,265.622 505.945,265.622 C505.945,265.622 505.322,256.854 502.334,258.048" fill="#F3B798"/>
    <path d="M485.742,259.346 C485.742,259.346 482.73,260.801 481.943,261.45 C481.157,262.098 477.969,264.484 477.198,265.045 C476.425,265.607 478.362,267.203 484.06,264.735 C489.759,262.267 485.742,259.346 485.742,259.346" fill="#F3B798"/>
    <path d="M485.478,226.379 L490.729,275.193 L421.623,275.193 L416.373,226.379 L485.478,226.379" fill="#305793"/>
    <path d="M496.228,270.801 L484.686,270.801 L484.686,275.193 L496.228,275.193 z" fill="#305793"/>
    <path d="M616.522,278.066 L415.837,278.066 L415.837,275.091 L616.522,275.091 z" fill="url(#Gradient_9)"/>
    <path d="M407.164,264.332 C407.164,264.332 423.251,277.497 416.78,289.17 C410.309,300.843 406.161,291.354 406.161,291.354 C406.161,291.354 401.331,293.215 407.636,278.948 C410.608,272.223 407.164,264.332 407.164,264.332" fill="#C7D683"/>
    <path d="M457.388,250.002 C457.944,252.72 456.676,255.275 454.557,255.707 C452.438,256.141 450.269,254.289 449.713,251.571 C449.159,248.853 450.426,246.298 452.545,245.865 C454.664,245.432 456.833,247.285 457.388,250.002" fill="#4F88E1"/>
    <path d="M382.616,241.515 C382.616,241.515 405.322,252.038 401.279,267.589 C397.236,283.141 389.552,273.322 389.552,273.322 C389.552,273.322 384.481,276.941 387.551,258.415 C388.998,249.683 382.616,241.515 382.616,241.515" fill="#C7D683"/>
    <path d="M408.362,213.045 C408.362,213.045 426.7,224.016 416.395,251.303 C406.091,278.59 412.632,288.951 412.632,288.951 C412.632,288.951 375.648,260.111 408.362,213.045" fill="#58864A"/>
    <path d="M407.277,287.594 C399.675,292.009 398.88,266.261 408.666,254.881 C418.453,243.5 429.163,239.086 433.657,229.797 C433.657,229.797 444.708,265.853 407.277,287.594" fill="#A7B14C"/>
    <path d="M373.594,245.041 C373.594,245.041 366.613,224.566 379.936,218.218 C393.26,211.871 404.573,221.046 406.709,226.011 C408.846,230.977 408.281,240.005 406.458,246.301 C404.635,252.596 404.901,262.18 408.86,265.386 C412.82,268.591 417.729,273.915 417.486,284.75 C417.335,291.473 391.032,267.554 391.032,267.554 L373.594,245.041" fill="#41476A"/>
    <path d="M392.316,269.399 C392.316,269.399 403.267,271.826 407.614,274.366 C411.96,276.907 421.613,288.591 421.613,293.616 C421.613,298.639 379.399,303.333 379.399,303.333 L371.398,332.545 C371.398,332.545 350.06,327.337 347.52,323.02 C344.98,318.702 355.624,287.752 357.446,281.489 C359.304,275.099 366.953,270.644 375.842,269.399 C384.733,268.153 392.316,269.399 392.316,269.399" fill="#305793"/>
    <path d="M376.602,269.297 C376.602,269.297 376.848,282.608 387.405,283.002 C397.96,283.398 395.763,270.237 395.763,270.237 C395.763,270.237 388.041,267.109 376.602,269.297" fill="#F3B798"/>
    <path d="M372.136,229.132 C372.136,229.132 368.402,250.54 379.036,266.004 C390.049,282.02 372.136,229.132 372.136,229.132" fill="#41476A"/>
    <path d="M378.868,259.887 C378.868,259.887 379.601,266.253 378.375,270.213 C377.15,274.172 394.517,274.283 394.506,271.027 C394.496,267.328 392.73,264.238 394.393,257.899 C396.057,251.559 378.868,259.887 378.868,259.887" fill="#F3B798"/>
    <path d="M392.338,260.699 C392.338,260.699 386.855,266.412 379.844,261.295 C379.844,261.295 380.423,264.946 385.466,265.417 C390.508,265.889 392.338,260.699 392.338,260.699" fill="#B78B73"/>
    <path d="M385.472,221.71 C385.472,221.71 371.615,225.811 373.594,245.041 C375.574,264.272 384.623,263.282 385.472,263.423 C386.321,263.565 397.067,264.272 400.46,240.941 C403.854,217.61 385.472,221.71 385.472,221.71" fill="#F3B798"/>
    <path d="M389.049,230.286 C389.049,230.286 381.519,242.263 373.594,245.041 C373.594,245.041 369.267,224.943 387.14,220.732 C405.012,216.521 402.212,241.032 400.878,247.569 C400.878,247.569 397.157,237.953 389.049,230.286" fill="#41476A"/>
    <path d="M399.149,228.481 C399.149,228.481 395.185,220.805 388.492,220.462 C381.799,220.12 377.819,225.925 377.819,225.925 C377.819,225.925 380.432,219.388 388.484,219.388 C396.536,219.388 399.149,228.481 399.149,228.481" fill="#98CDFF"/>
    <path d="M371.906,288.855 L367.206,332.545 L429.058,332.545 L433.757,288.855 L371.906,288.855" fill="#FFCF67"/>
    <path d="M372.615,328.615 L362.285,328.615 L362.285,332.545 L372.615,332.545 z" fill="#FFCF67"/>
    <path d="M396.644,309.995 C396.089,312.712 397.357,315.266 399.476,315.7 C401.595,316.132 403.763,314.281 404.319,311.563 C404.874,308.844 403.607,306.29 401.488,305.857 C399.369,305.424 397.2,307.276 396.644,309.995" fill="#E7BB5D"/>
    <path d="M471.684,332.545 L301.318,332.545 L301.318,335.519 L471.684,335.519 z" fill="url(#Gradient_10)"/>
    <path d="M329.194,253.145 L329.194,269.293 C329.194,269.957 329.732,270.497 330.397,270.497 L339.922,270.497 C340.586,270.497 341.125,269.957 341.125,269.293 L341.125,264.209 C337.035,262.789 333.346,259.742 330.701,255.904 C330.132,255.079 329.63,254.016 329.194,253.145" fill="#5486BE"/>
    <path d="M320.654,333.959 L321.405,334.032 L327.439,271.748 L326.688,271.676 L320.654,333.959" fill="#5486BE"/>
    <path d="M308.514,332.781 L309.265,332.854 L315.299,270.571 L314.549,270.498 L308.514,332.781" fill="#5486BE"/>
    <path d="M313.517,285.304 L325.657,286.482 L325.729,285.732 L313.589,284.553 L313.517,285.304" fill="#5486BE"/>
    <path d="M312.969,290.949 L325.109,292.127 L325.181,291.376 L313.042,290.199 L312.969,290.949" fill="#5486BE"/>
    <path d="M312.421,296.593 L324.561,297.772 L324.633,297.021 L312.495,295.843 L312.421,296.593" fill="#5486BE"/>
    <path d="M311.873,302.239 L324.013,303.416 L324.085,302.666 L311.947,301.488 L311.873,302.239" fill="#5486BE"/>
    <path d="M311.326,307.883 L323.465,309.061 L323.538,308.311 L311.399,307.132 L311.326,307.883" fill="#5486BE"/>
    <path d="M310.778,313.528 L322.917,314.706 L322.99,313.956 L310.851,312.778 L310.778,313.528" fill="#5486BE"/>
    <path d="M310.23,319.172 L322.37,320.351 L322.442,319.6 L310.303,318.422 L310.23,319.172" fill="#5486BE"/>
    <path d="M309.682,324.818 L321.822,325.996 L321.894,325.246 L309.755,324.067 L309.682,324.818" fill="#5486BE"/>
    <path d="M309.049,330.096 L321.188,331.274 L321.261,330.524 L309.122,329.346 L309.049,330.096" fill="#5486BE"/>
    <path d="M314.996,272.585 L327.135,273.763 L327.208,273.012 L315.069,271.834 L314.996,272.585" fill="#5486BE"/>
    <path d="M314.448,278.23 L326.587,279.408 L326.66,278.658 L314.521,277.479 L314.448,278.23" fill="#5486BE"/>
    <path d="M317.92,316.518 C317.92,316.518 319.563,316.953 319.599,316.794 C319.636,316.636 319.903,315.588 319.903,315.588 C319.71,315.415 317.921,315.236 317.921,315.236 L317.92,316.518" fill="#6F6760"/>
    <path d="M320.574,317.695 C320.092,317.36 319.632,316.661 319.632,316.661 C318.373,316.65 317.92,316.403 317.92,316.403 C317.92,316.403 317.125,318.543 317.316,318.913 C317.506,319.282 318.552,319.209 320.671,319.496 C323.655,319.897 323.382,319.017 323.186,318.785 C322.914,318.462 321.055,318.029 320.574,317.695" fill="#4D5357"/>
    <path d="M323.441,299.55 C323.125,297.963 321.93,293.523 321.93,293.523 C321.047,292.109 312.998,292.92 312.998,292.92 C313.65,297.376 316.077,297.433 317.136,299.835 C318.197,302.238 318.372,302.149 319.717,305.065 C320.622,307.026 317.154,315.848 317.154,315.848 L320.441,316.375 C320.817,314.844 324.425,306.368 324.346,305.493 C324.268,304.617 323.715,300.933 323.441,299.55" fill="#4D5357"/>
    <path d="M316.083,271.949 C315.511,272.239 314.743,272.796 314.718,273.8 C314.694,274.805 315.203,276.308 315.766,277.348 C316.33,278.388 317.982,278.602 319.082,278.193 C320.183,277.784 320.28,274.456 319.273,272.795 C318.267,271.133 316.083,271.949 316.083,271.949" fill="#F3B798"/>
    <path d="M318.716,278.09 C318.716,278.09 314.903,275.11 315.348,276.405 C315.793,277.701 316.028,279.234 316.028,279.234 C316.028,279.234 318.919,279.226 318.774,278.945 C318.627,278.663 318.716,278.09 318.716,278.09" fill="#F3B798"/>
    <path d="M316.467,271.702 C316.467,271.702 314.461,272.254 314.535,273.396 C314.607,274.537 314.899,275.836 315.348,276.405 C315.348,276.405 315.547,276.735 316.363,276.607 C317.177,276.479 318.17,275.395 318.511,275.276 C318.851,275.157 318.854,274.957 318.854,274.957 L319.067,275.268 L319.428,275.291 C319.428,275.291 319.099,274.322 319.596,273.926 C320.093,273.531 319.08,270.789 316.467,271.702" fill="#4A5059"/>
    <path d="M318.081,274.389 C317.895,274.975 318.363,275.763 318.624,275.696 C318.885,275.628 318.916,275.028 318.8,274.542 C318.754,274.351 318.268,273.804 318.081,274.389" fill="#F3B798"/>
    <path d="M312.467,279.902 C312.37,279.912 310.255,283.81 310.474,286.437 C310.498,286.723 310.826,287.033 311.048,287.186 C311.191,287.284 311.362,287.343 311.546,287.349 L311.675,287.354 L313.944,287.431 C313.944,287.431 315.63,281.981 312.467,279.902" fill="#74B5FF"/>
    <path d="M319.632,316.661 C318.373,316.65 317.92,316.403 317.92,316.403 C317.92,316.403 317.125,318.543 317.316,318.913 C317.506,319.282 318.552,319.209 320.671,319.496 C321.25,319.573 321.707,319.603 322.065,319.598 L322.189,318.323 C321.569,318.108 320.848,317.885 320.574,317.694 C320.092,317.36 319.632,316.661 319.632,316.661" fill="#4D5357"/>
    <path d="M315.935,278.703 L315.783,278.843 C315.783,278.843 315.478,279.428 316.626,279.478 C317.774,279.528 319.579,279.612 318.718,278.778 C318.718,278.778 316.938,278.364 315.935,278.703" fill="#FFD967"/>
    <path d="M309.779,321.419 C309.779,321.419 311.422,321.854 311.458,321.696 C311.495,321.538 311.761,320.49 311.761,320.49 C311.569,320.317 309.781,320.137 309.781,320.137 L309.779,321.419" fill="#6F6760"/>
    <path d="M312.221,297.866 C312.057,300.153 311.759,302.661 311.522,305.052 C311.257,307.718 310.502,312.028 310.463,313.455 C310.424,314.88 309.224,321.114 309.224,321.114 L312.294,321.466 C312.294,321.466 314.289,310.452 314.76,309.326 C315.232,308.2 317.568,300.173 317.647,299.273 C317.725,298.372 312.998,292.92 312.998,292.92 C312.998,292.92 312.399,295.392 312.221,297.866" fill="#4D5357"/>
    <path d="M312.433,322.595 C311.951,322.261 311.491,321.562 311.491,321.562 C310.233,321.551 309.779,321.304 309.779,321.304 C309.779,321.304 308.984,323.445 309.174,323.814 C309.366,324.183 310.411,324.111 312.531,324.397 C315.514,324.798 315.242,323.918 315.045,323.686 C314.774,323.364 312.914,322.93 312.433,322.595" fill="#4D5357"/>
    <path d="M322.605,280.239 C322.387,280.111 322.237,280.055 322.237,280.055 C322.034,279.968 321.834,279.885 321.641,279.805 C320.353,279.276 318.718,278.778 318.718,278.778 L316.09,278.778 C316.09,278.778 314.09,279.178 312.898,279.665 C312.746,279.728 312.602,279.808 312.467,279.902 L312.825,287.393 L312.826,287.398 L312.827,287.408 C312.988,288.461 313.157,289.705 313.213,290.577 C313.236,290.932 312.83,292.843 312.617,294.597 L311.873,298.794 C311.873,298.794 312.303,300.534 322.551,299.069 C322.812,299.032 321.902,291.236 321.971,290.747 C322.018,290.42 322.01,287.887 321.992,286.307 L322.277,284.709 C322.435,284.594 322.648,284.46 322.902,284.314 C323.298,284.085 323.794,283.824 324.346,283.548 C324.283,283.17 324.238,282.873 324.22,282.7 C324.082,281.295 323.14,280.552 322.605,280.239" fill="#74B5FF"/>
    <path d="M330.144,267.017 L330.947,267.027 L330.949,266.82 L329.94,266.807 L329.91,269.336 L334.556,270.098 L334.547,270.837 L334.754,270.84 L334.765,269.922 L330.12,269.161 L330.144,267.017" fill="#998686"/>
    <path d="M330.844,268.107 L338.388,268.196 L338.415,265.82 L330.872,265.731 L330.844,268.107" fill="#E9E4E4"/>
    <path d="M335.166,270.669 L334.132,270.669 L334.132,277.63 L335.166,277.63 z" fill="#998686"/>
    <path d="M335.66,273.772 C335.641,273.526 335.389,273.261 335.389,273.261 C335.413,273.135 335.372,272.991 335.237,272.861 C335.14,272.768 334.693,272.818 334.648,272.826 C334.527,272.849 334.332,272.806 334.11,272.874 L334.036,272.901 C333.784,273.006 332.608,274.529 332.608,274.529 L332.82,275.137 L333.115,275.89 C333.115,275.89 334.384,275.601 334.664,275.52 C334.946,275.44 335.146,275.274 335.246,275.212 L335.354,275.159 C335.497,275.095 335.702,275.017 335.702,275.017 C335.81,274.966 335.965,274.774 335.965,274.774 C336.053,274.589 335.835,274.322 335.835,274.322 C335.9,274.009 335.66,273.772 335.66,273.772" fill="#F3B798"/>
    <path d="M332.587,274.348 C332.587,274.348 328.362,278.35 327.438,278.843 C326.644,279.266 322.721,279.695 321.641,279.805 C321.465,279.824 321.365,279.833 321.365,279.833 C320.236,281.373 321.731,285.055 322.361,284.649 C322.654,284.46 323.034,284.206 324.346,283.548 C326.79,282.326 329.809,280.108 330.383,279.788 C331.265,279.295 334.052,275.89 334.052,275.89 C333.909,275.377 332.587,274.348 332.587,274.348" fill="#74B5FF"/>
    <path d="M456.536,354.542 C456.536,354.542 456.46,355.518 456.235,355.897 C456.01,356.275 455.274,358.517 454.957,359.085 C454.642,359.653 453.38,360.061 453.44,361.065 C453.5,362.07 455.824,362.227 456.47,361.747 C457.116,361.266 459.21,358.255 459.451,357.819 C459.692,357.381 459.782,355.897 459.346,355.474 C458.911,355.052 458.435,354.179 458.444,353.975 C458.454,353.771 456.791,354.135 456.536,354.542" fill="#FFD267"/>
    <path d="M459.236,324.682 C459.236,324.682 455.048,330.195 454.327,331.826 C453.605,333.456 452.363,335.786 452.363,336.542 C452.363,337.299 453.004,340.386 453.325,340.969 C453.645,341.551 455.849,351.49 455.97,352.13 C456.09,352.771 456.536,354.542 456.536,354.542 L458.444,353.975 C458.444,353.975 458.642,345.173 458.302,343.426 C457.961,341.679 456.931,339.144 457.091,338.348 C457.252,337.552 459.817,335.339 461.58,334.155 C463.343,332.971 465.427,331.108 465.547,329.186 C465.667,327.264 464.696,325.089 464.696,325.089 C464.696,325.089 462.702,323.672 459.236,324.682" fill="#305793"/>
    <path d="M454.538,324.187 C454.538,324.187 453.335,325.963 452.734,326.4 C452.132,326.836 447.955,330.826 446.752,332.777 C445.55,334.728 445.14,335.019 445.39,335.864 C445.641,336.707 446.001,338.979 446.272,339.561 C446.542,340.144 450.039,354.046 450.039,354.046 C450.039,354.046 451.48,354.411 451.9,353.77 C451.9,353.77 451.079,347.744 451.289,345.56 C451.499,343.375 451.075,340.197 450.155,338.595 C449.234,336.994 449.878,335.921 450.93,335.194 C451.983,334.465 457.795,331.175 457.795,331.175 C457.795,331.175 464.846,321.42 454.538,324.187" fill="#305793"/>
    <path d="M450.089,353.975 C450.089,353.975 450.059,354.325 449.954,354.368 C449.848,354.412 448.196,356.858 447.88,357.207 C447.564,357.556 445.58,358.124 445.55,358.357 C445.521,358.59 445.821,359.901 447.444,359.929 C449.067,359.958 450.419,358.561 451.08,358.037 C451.742,357.513 453.56,356.989 452.899,355.649 C452.238,354.31 451.9,353.77 451.9,353.77 L450.089,353.975" fill="#FFD267"/>
    <path d="M459.091,355.186 C459.091,355.186 458.58,355.998 458.248,357.134 C457.918,358.27 456.626,359.741 455.74,359.697 C454.853,359.653 455,359.004 455,359.004 C455,359.004 455.942,356.421 456.336,355.591 C456.402,355.454 456.491,354.808 456.536,354.542 C456.56,354.4 457.858,353.873 458.444,353.975 C458.444,353.975 458.96,355.007 459.091,355.186" fill="#305793"/>
    <path d="M447.807,357.272 C447.807,357.272 448.105,358.062 448.857,357.918 C449.608,357.775 450.45,356.93 450.885,356.45 C451.322,355.969 452.584,354.993 452.584,354.993 L451.9,353.77 L450.096,353.88 L447.807,357.272" fill="#305793"/>
    <path d="M454.578,324.043 C454.578,324.043 453.285,325.749 452.864,326.08 C452.443,326.41 448.761,329.406 446.514,333.159 C446.514,333.159 453.738,332.914 457.759,337.359 C457.759,337.359 461.66,334.123 462.09,333.798 C462.521,333.475 465.327,331.826 465.547,329.186 C465.768,326.545 464.696,325.089 464.696,325.089 C464.696,325.089 456.793,323.269 454.578,324.043" fill="#FFD267"/>
    <path d="M453.665,316.407 C454.619,318.017 454.778,323.692 454.537,324.238 C454.537,324.238 460.013,325.921 464.762,325.248 C464.762,325.248 464.525,324.732 464.29,324.054 C464.196,323.784 464.091,323.484 463.984,323.177 C463.645,322.214 463.271,321.177 463.073,320.707 C462.652,319.711 462.802,318.043 463.132,317.465 C463.463,316.887 465.416,312.555 465.416,312.555 C465.416,312.555 466.469,309.473 464.665,308.511 C462.862,307.548 461.184,307.222 461.184,307.222 L458.009,307.002 C458.009,307.002 457.317,307.13 456.385,307.211 C455.454,307.291 454.492,307.452 454.296,308.993 C454.101,310.533 453.91,311.346 453.709,311.752 C453.509,312.159 452.583,314.577 453.665,316.407" fill="#FFD267"/>
    <path d="M463.499,307.96 C463.499,307.96 465.362,308.217 466.183,309.65 C467.005,311.083 466.95,313.015 467.13,313.786 C467.31,314.555 468.413,321.745 468.212,322.366 C468.012,322.986 467.23,324.035 466.048,323.906 C464.866,323.778 460.097,321.295 460.097,321.295 C460.097,321.295 460.739,319.434 460.739,319.049 L465.327,320.654 C465.327,320.654 464.225,313.143 464.084,312.309 C463.945,311.474 463.042,308.7 463.499,307.96" fill="#FFD267"/>
    <path d="M455.528,307.349 C455.528,307.349 454.105,307.639 453.305,308.816 C452.748,309.634 452.704,311.453 452.623,311.795 C452.543,312.138 451.482,316.013 451.482,316.013 L454.447,318 L455.528,307.349" fill="#FFD267"/>
    <path d="M454.166,314.833 L464.566,311.752 L464.986,312.095 L465.848,320.268 L454.166,324.655 L454.166,314.833" fill="#254C67"/>
    <path d="M455.307,301.673 C455.307,301.673 456.292,306.434 455.592,307.747 C455.592,307.747 457.743,306.957 458.164,306.082 C458.586,305.207 455.307,301.673 455.307,301.673" fill="#254C67"/>
    <path d="M457.675,305.305 C457.675,305.305 457.724,305.784 457.778,306.414 C457.795,306.628 457.815,306.862 457.832,307.1 C457.89,307.878 457.936,308.709 457.908,309.136 C457.908,309.136 459.441,310.777 461.184,307.222 C461.184,307.222 460.451,305.756 461.003,303.759 C461.555,301.763 457.675,305.305 457.675,305.305" fill="#F3B798"/>
    <path d="M457.705,295.877 C457.705,295.877 454.999,296.14 454.877,299.613 C454.755,303.085 456.231,305.938 456.733,306.362 C457.235,306.786 459.892,306.084 460.334,304.234 C460.776,302.383 461.564,300.975 461.257,299.47 C460.951,297.964 461.016,295.405 457.705,295.877" fill="#F3B798"/>
    <path d="M454.904,300.917 C454.904,300.917 453.715,296.754 457.212,295.545 C460.71,294.335 462.252,296.794 462.764,298.308 C463.276,299.822 463.354,304.259 463.354,304.259 C463.354,304.259 461.211,306.792 459.849,307.55 C459.849,307.55 460.531,302.732 459.714,299.445 C459.714,299.445 456.859,300.295 454.871,300.029 C454.871,300.029 454.889,300.734 454.904,300.917" fill="#254C67"/>
    <path d="M457.778,306.414 C457.795,306.628 457.815,306.862 457.832,307.1 C459.405,306.266 459.761,305.295 459.761,305.295 C458.713,306.328 457.778,306.414 457.778,306.414" fill="#B78B73"/>
    <path d="M453.677,311.823 C453.677,311.823 452.012,314.648 452.383,316.49 C452.753,318.332 454.007,317.251 454.007,317.251 C454.007,317.251 452.326,315.166 453.677,311.823" fill="#D9B156"/>
    <path d="M453.504,324.655 L446.752,318.792 L444.87,309.185 L453.054,314.842 L453.504,324.655" fill="#254C67"/>
    <path d="M454.166,324.655 L453.504,324.655 L453.054,314.842 L454.166,314.833 L454.166,324.655" fill="#254C67"/>
    <path d="M460.688,319.362 C460.688,319.362 459.812,319.048 459.72,318.986 C459.628,318.924 459.501,318.001 459.069,317.65 C458.637,317.298 458.071,316.921 457.961,316.754 C457.852,316.586 457.609,317.076 457.992,317.495 C458.373,317.915 458.38,318.245 457.434,318.035 C456.91,317.918 455.193,316.883 455.213,317.277 C455.225,317.508 456.908,318.435 456.908,318.435 C456.908,318.435 455.037,317.573 454.924,317.665 C454.704,317.846 456.55,318.786 456.632,318.814 C456.632,318.814 454.982,318.179 454.906,318.328 C454.812,318.511 456.477,319.172 456.449,319.197 C456.449,319.197 455.13,318.708 455.097,318.831 C455.052,318.992 456.172,319.523 456.402,319.595 C456.631,319.666 459.028,320.523 459.436,320.568 C459.844,320.613 460.183,321.042 460.183,321.042 L460.688,319.362" fill="#F3B798"/>
    <path d="M460.363,319.011 C460.363,319.011 459.831,320.242 459.742,321.129 C459.742,321.129 462.73,322.689 464.667,323.463 L466.168,320.209 L465.848,320.268 L465.344,320.457 C465.344,320.457 461.487,319.342 460.363,319.011" fill="#FFD267"/>
    <path d="M449.905,353.513 C449.905,353.513 449.773,354.731 449.578,354.833 C449.383,354.937 451.57,354.42 449.905,353.513" fill="#305793"/>
    <path d="M461.87,322.198 C461.917,322.237 463.495,323.484 464.29,324.054 C464.196,323.784 464.091,323.484 463.984,323.177 L461.87,322.198" fill="#D9B156"/>
    <path d="M446.752,318.792 L444.205,309.482 L444.87,309.185 L446.752,318.792" fill="#254C67"/>
    <path d="M446.671,318.494 C446.671,318.494 446.433,318.079 446.237,317.551 C446.039,317.024 445.457,315.052 445.577,314.967 C445.696,314.882 447.205,315.218 447.415,315.531 C447.626,315.843 447.064,315.805 447.064,315.805 C447.064,315.805 447.863,316.093 447.747,316.311 C447.63,316.528 447.153,316.34 447.153,316.34 C447.153,316.34 447.781,316.631 447.63,316.81 C447.48,316.988 447.163,316.907 447.163,316.907 C447.163,316.907 447.73,317.125 447.602,317.33 C447.475,317.534 446.497,317.513 446.575,317.729 C446.653,317.944 446.671,318.494 446.671,318.494" fill="#F3B798"/>
    <path d="M457.531,72.413 C457.531,72.413 457.155,71.51 457.094,71.363 C457.034,71.216 457.122,70.782 457.266,70.29 C457.411,69.8 457.825,69.202 457.91,69.176 C457.994,69.15 458.067,69.084 458.283,69.153 C458.497,69.222 458.642,69.399 458.642,69.399 C458.642,69.399 458.948,69.359 459.11,69.59 C459.11,69.59 459.399,69.566 459.539,69.859 C459.539,69.859 459.823,69.842 459.907,70.064 C459.907,70.064 459.819,70.499 459.833,70.67 C459.847,70.841 459.604,71.736 459.238,72.558 C459.238,72.558 458.817,73.436 457.531,72.413" fill="#F3B798"/>
    <path d="M448.115,68.736 C448.115,68.736 448.796,69.999 448.458,70.197 C448.179,70.359 448.786,71.6 448.865,71.802 C448.944,72.005 448.359,72.152 448.235,72.283 C448.111,72.413 447.742,74.018 447.26,74.067 C446.778,74.116 444.607,73.36 444.015,72.746 C443.424,72.13 442.939,69.353 443.333,68.182 C443.728,67.01 446.911,66.528 448.115,68.736" fill="#F3B798"/>
    <path d="M448.25,69.009 C448.25,69.009 448.947,67.644 447.682,66.631 C446.417,65.619 444.086,67.396 443.824,67.464 C443.561,67.532 442.097,67.626 442.823,70.252 C443.469,72.588 443.56,72.458 443.56,72.458 C443.56,72.458 444.042,71.292 444.315,71.093 C444.743,70.784 445.678,70.858 445.678,70.858 C445.678,70.858 445.232,69.674 445.929,69.506 C446.626,69.338 447.545,68.747 448.25,69.009" fill="#FDD5B1"/>
    <path d="M444.936,70.18 C444.874,70.018 444.675,69.32 444.077,69.73 C443.477,70.139 444.45,71.456 444.554,71.472 C444.659,71.489 445.453,71.547 444.936,70.18" fill="#F3B798"/>
    <path d="M445.812,73.722 C445.812,73.722 445.753,73.85 445.667,74.05 C445.631,74.134 445.591,74.23 445.547,74.334 C444.388,73.473 444.114,72.849 444.105,72.83 C444.647,73.222 445.812,73.722 445.812,73.722" fill="#B78B73"/>
    <path d="M466.001,71.473 L449.106,71.095 L449.138,69.684 L466.033,70.062 L466.001,71.473" fill="#3D5876"/>
    <path d="M450.371,71.419 L449.099,71.391 L449.144,69.388 L450.415,69.416 L450.371,71.419" fill="#3D5876"/>
    <path d="M468.399,72.085 L461.863,71.939 L461.919,69.412 L468.455,69.557 L468.399,72.085" fill="#3D5876"/>
    <path d="M472.155,72.885 L467.819,72.787 L467.908,68.829 L472.244,68.926 L472.155,72.885" fill="#3D5876"/>
    <path d="M456.011,69.941 C456.011,69.941 456.082,70.203 456.057,70.332 C456.057,70.332 455.994,70.566 455.958,70.734 L455.937,70.865 C455.927,70.994 455.945,71.279 455.835,71.58 C455.726,71.883 455.231,72.912 455.231,72.912 L454.28,72.645 L453.423,72.654 C453.423,72.654 453.026,70.742 453.095,70.448 L453.12,70.366 C453.203,70.122 453.367,69.977 453.424,69.855 C453.446,69.81 453.69,69.378 453.836,69.353 C454.039,69.317 454.194,69.373 454.29,69.476 C454.29,69.476 454.69,69.422 454.92,69.565 C454.92,69.565 455.288,69.504 455.524,69.763 C455.524,69.763 455.903,69.743 456.011,69.941" fill="#F3B99A"/>
    <path d="M457.867,69.303 C457.867,69.303 457.531,70.555 457.726,70.634 C457.92,70.713 458.04,70.624 458.04,70.624 L458.136,71.203 C458.136,71.203 458.415,71.549 458.712,71.144 C458.712,71.144 458.939,71.495 459.179,71.069 C459.179,71.069 459.432,71.234 459.578,71.056 C459.724,70.878 459.907,69.924 459.907,69.924 C459.907,69.924 459.767,69.722 459.539,69.859 C459.539,69.859 459.421,69.57 459.11,69.59 C459.11,69.59 458.979,69.374 458.642,69.399 C458.642,69.399 458.314,68.94 457.91,69.176 L457.867,69.303" fill="#E3AD8E"/>
    <path d="M457.1,71.323 C457.1,71.323 457.698,70.662 458.182,70.446 C458.291,70.397 458.407,70.369 458.494,70.452 C458.58,70.536 458.57,70.767 458.326,71.066 C458.081,71.365 457.904,71.863 457.904,71.863 C457.904,71.863 457.562,72.097 457.1,71.323" fill="#F3B798"/>
    <path d="M459.283,72.455 C459.283,72.455 458.99,73.286 458.004,74.028 C457.018,74.771 457.1,73.242 457.1,73.242 C457.1,73.242 457.508,72.549 457.502,72.345 C457.496,72.14 459.283,72.455 459.283,72.455" fill="#F3B798"/>
    <path d="M453.188,78.768 C454.443,78.289 458.984,73.248 458.984,73.248 L457.282,72.318 C457.282,72.318 454.84,74.904 453.478,75.821 C452.8,76.278 451.813,76.304 451.678,76.349 C451.543,76.393 447.298,76.022 446.914,75.92 C446.529,75.818 445.201,75.258 444.274,75.315 C443.348,75.371 442.978,76.257 442.978,76.257 C442.818,78.502 446.259,78.49 446.259,78.49 C446.259,78.49 451.428,79.439 453.188,78.768" fill="#363B59"/>
    <path d="M450.688,106.125 C450.688,106.125 451.78,107.042 452.286,107.4 C452.79,107.757 454.909,108.186 455.086,108.42 C455.264,108.656 455.081,109.281 454.717,109.288 C454.353,109.293 451.723,109.1 450.893,108.754 C450.061,108.409 448.388,108.481 448.05,108.3 C447.712,108.12 448.263,106.227 448.473,105.818 C448.682,105.407 450.688,106.125 450.688,106.125" fill="#363B59"/>
    <path d="M450.811,105.285 L450.811,106.228 C450.811,106.228 448.945,106.324 448.407,105.97 L448.778,104.962 L450.811,105.285" fill="#4E547E"/>
    <path d="M428.364,115.081 C428.364,115.081 429.541,115.887 430.079,116.193 C430.616,116.499 432.807,116.129 433.006,116.346 C433.206,116.563 433.177,117.321 432.816,117.363 C432.454,117.405 429.685,117.939 428.825,117.676 C427.963,117.415 426.305,117.65 425.952,117.502 C425.597,117.355 425.96,115.418 426.129,114.99 C426.299,114.561 428.364,115.081 428.364,115.081" fill="#363B59"/>
    <path d="M428.519,114.29 L428.364,115.081 C428.364,115.081 426.705,115.279 426.226,114.993 L426.404,114.172 L428.519,114.29" fill="#4E547E"/>
    <path d="M441.997,89.743 C441.836,90.274 441.428,91.409 440.99,92.598 C440.892,92.863 440.792,93.129 440.694,93.393 C440.098,94.993 439.533,96.467 439.533,96.467 C438.671,98.434 436.653,102.63 435.675,103.367 C434.357,104.36 428.519,114.82 428.519,114.82 L425.89,114.509 C425.89,114.509 428.749,106.689 429.939,104.959 C431.268,103.028 433.354,100.503 433.576,98.358 C433.715,97.011 434.548,92.829 434.548,92.829 C434.548,92.829 435.525,88.14 437.636,85.079 C438.164,84.313 441.997,89.743 441.997,89.743" fill="#363B59"/>
    <path d="M444.803,89.272 C444.803,89.272 453.156,91.46 453.971,92.589 C454.788,93.717 453.238,98.099 453.117,98.649 C452.995,99.198 451.1,104.44 451.039,105.385 C451.039,105.385 449.085,105.632 448.505,104.9 C448.505,104.9 449.002,99.949 449.455,98.162 C450.287,94.881 447.765,94.847 446.331,94.206 C444.898,93.566 436.766,93.309 436.894,91.898 C436.983,90.92 437.358,88.319 437.358,88.319 C437.358,88.319 438.784,87.168 444.803,89.272" fill="#363B59"/>
    <path d="M444.643,74.67 C444.643,74.67 445.462,77.071 445.467,78.441 C445.472,79.811 444.195,83.929 444.105,84.69 C443.865,86.741 444.803,89.272 444.803,89.272 L437.249,90.722 C437.249,90.722 437.034,88.552 437.071,85.946 C437.108,83.339 437.726,81.177 438.185,79.747 C439.622,75.26 442.852,73.49 442.852,73.49 L444.643,74.67" fill="#D8CAC3"/>
    <path d="M445.812,73.722 C445.812,73.722 445.753,73.85 445.667,74.05 C445.631,74.134 445.591,74.23 445.547,74.334 L445.444,74.585 C445.221,75.133 444.973,75.799 444.937,76.13 C444.869,76.748 443.137,73.504 443.137,73.504 C443.137,73.504 443.95,71.667 444.521,69.495 C445.092,67.323 445.812,73.722 445.812,73.722" fill="#F3B798"/>
    <path d="M443.261,73.212 C443.261,73.212 444.339,75.141 445.152,75.747 L444.928,76.986 L442.852,73.49 L443.261,73.212" fill="#F1E1DB"/>
    <path d="M444.803,89.272 C444.803,89.272 444.588,88.614 444.542,88.447 L437.177,89.819 L437.249,90.722 C437.249,90.722 442.635,89.751 444.803,89.272" fill="#2F344E"/>
    <path d="M437.401,82.239 C437.401,82.239 437.066,86.522 434.15,90.722 C433.794,91.235 438.185,91.898 438.185,91.898 L437.401,82.239" fill="#41476A"/>
    <path d="M455.231,72.912 C455.231,72.912 454.897,73.554 454.191,74.375 C453.486,75.198 453.188,73.474 453.188,73.474 L453.423,72.654 C453.423,72.654 454.467,72.204 455.231,72.912" fill="#F3B99A"/>
    <path d="M445.455,76.385 C445.455,76.385 445.754,77.232 445.699,77.483 C445.699,77.483 445.238,77.701 444.874,77.516 C444.874,77.516 445.06,76.886 445.455,76.385" fill="#DE5751"/>
    <path d="M445.062,77.42 C445.062,77.42 444.229,80.28 444.698,83.35 C445.183,86.534 445.595,87.665 445.595,87.665 L446.348,88.447 L446.547,87.38 C446.547,87.38 445.26,83.385 445.47,79.36 C445.508,78.63 445.537,77.252 445.537,77.252 L445.062,77.42" fill="#DE5751"/>
    <path d="M444.917,79.431 C444.751,79.886 444.595,80.348 444.451,80.811 C444.131,81.83 443.861,82.861 443.631,83.865 C443.549,84.223 443.473,84.578 443.402,84.928 C442.55,89.1 440.316,92.162 440.316,92.162 C440.316,92.162 436.968,91.894 436.189,91.34 C436.189,91.34 436.405,86.535 437.476,81.909 C437.559,81.551 437.647,81.195 437.74,80.842 L437.74,80.841 C438.725,77.111 440.313,73.756 442.852,73.49 C442.901,73.548 445.789,77.037 444.917,79.431" fill="#41476A"/>
    <path d="M450.618,79.601 C451.939,79.362 455.133,73.562 455.133,73.562 L453.148,72.511 C453.148,72.511 452.195,74.345 450.981,75.549 C450.401,76.124 449.648,77.173 449.507,77.193 C449.367,77.212 445.431,76.128 445.072,75.957 C444.712,75.787 443.509,74.993 442.587,74.878 C441.666,74.763 441.141,75.566 441.141,75.566 C440.571,77.744 443.956,78.363 443.956,78.363 C443.956,78.363 448.766,79.937 450.618,79.601" fill="#41476A"/>
    <path d="M551.134,234.709 L590.377,234.709 C592.529,234.709 594.273,232.965 594.273,230.815 L594.273,202.786 C594.273,200.634 592.529,198.89 590.377,198.89 L551.134,198.89 C548.983,198.89 547.24,200.634 547.24,202.786 L547.24,230.815 C547.24,231.972 547.744,233.011 548.545,233.724 C549.233,234.337 550.14,234.709 551.134,234.709 z M581.856,222.599 L589.415,228.476 L552.639,228.476 L552.639,218.216 L559.569,222.928 L566.133,219.221 L575.293,226.161 L581.856,222.599 z" fill="url(#Gradient_11)"/>
    <path d="M552.639,205.305 L552.639,206.442 C552.639,206.954 553.054,207.369 553.566,207.369 L573.222,207.369 C573.734,207.369 574.149,206.954 574.149,206.442 L574.149,205.305 C574.149,204.793 573.734,204.378 573.222,204.378 L553.566,204.378 C553.054,204.378 552.639,204.793 552.639,205.305" fill="#E8F5FF"/>
    <path d="M552.639,211.11 L552.639,212.639 C552.639,213.151 553.054,213.566 553.566,213.566 L573.222,213.566 C573.734,213.566 574.149,213.151 574.149,212.639 L574.149,211.11 C574.149,210.598 573.734,210.183 573.222,210.183 L553.566,210.183 C553.054,210.183 552.639,210.598 552.639,211.11" fill="#E8F5FF"/>
    <path d="M588.008,209.513 C587.992,208.166 587.344,206.975 586.35,206.217 C585.626,205.664 584.72,205.34 583.739,205.352 C581.936,205.375 580.412,206.528 579.83,208.127 L579.83,208.13 C579.691,208.511 579.607,208.916 579.583,209.339 C579.579,209.433 579.578,209.527 579.578,209.622 C579.59,210.575 579.918,211.45 580.46,212.148 C581.243,213.158 582.472,213.8 583.847,213.783 C584.301,213.777 584.738,213.7 585.145,213.561 C586.83,212.992 588.033,211.388 588.008,209.513 z M585.596,214.894 C585.053,215.079 584.471,215.181 583.866,215.189 C582.032,215.212 580.391,214.356 579.348,213.01 C578.624,212.078 578.187,210.911 578.171,209.64 C578.169,209.513 578.172,209.387 578.179,209.263 C578.208,208.699 578.323,208.157 578.507,207.647 C579.283,205.513 581.316,203.977 583.72,203.946 C585.016,203.928 586.215,204.352 587.175,205.076 C588.517,206.087 589.392,207.686 589.416,209.496 C589.447,211.995 587.843,214.134 585.596,214.894" fill="#E8F5FF"/>
    <path d="M580.46,212.149 L579.348,213.01 C580.391,214.356 582.032,215.212 583.866,215.19 C584.471,215.181 585.052,215.079 585.596,214.894 L585.145,213.561 C584.737,213.7 584.301,213.777 583.847,213.783 C582.472,213.8 581.243,213.158 580.46,212.149" fill="#E8F5FF"/>
    <path d="M579.584,209.339 L578.179,209.263 C578.172,209.387 578.169,209.513 578.171,209.64 C578.188,210.911 578.624,212.078 579.348,213.01 L580.46,212.149 C579.918,211.45 579.59,210.575 579.579,209.622 C579.578,209.527 579.579,209.432 579.584,209.339" fill="#E8F5FF"/>
    <path d="M579.583,209.339 C579.607,208.916 579.691,208.511 579.83,208.13 L579.83,208.127 L578.507,207.647 C578.323,208.157 578.208,208.699 578.179,209.263 L579.583,209.339" fill="#E8F5FF"/>
    <path d="M587.175,205.076 C586.215,204.352 585.016,203.928 583.72,203.946 C581.316,203.977 579.283,205.513 578.507,207.647 L579.83,208.13 L579.83,208.127 C580.412,206.528 581.936,205.375 583.739,205.352 C584.72,205.34 585.626,205.664 586.35,206.217 L587.175,205.076" fill="#E8F5FF"/>
    <path d="M552.639,228.476 L589.415,228.476 L581.856,222.599 L575.293,226.161 L566.133,219.221 L559.569,222.928 L552.639,218.216 L552.639,228.476 z" fill="url(#Gradient_12)"/>
    <path d="M592.986,229.562 L587.375,232.646 L581.742,223.78 L588.555,221.413 L592.986,229.562" fill="#363B59"/>
    <path d="M592.629,229.295 L587.383,232.179 L582.115,223.888 L588.487,221.675 L592.629,229.295" fill="#E8DBD4"/>
    <path d="M594.551,227.745 C594.551,227.745 593.575,227.278 593.146,227.034 C592.717,226.79 591.615,226.455 591.526,226.375 C591.437,226.295 588.257,226.099 588.065,225.933 C587.872,225.767 587.684,226.323 588.508,226.503 C589.332,226.684 590.479,227.125 590.541,227.448 C590.605,227.769 589.696,227.846 589.603,228.111 C589.511,228.376 589.629,228.317 589.759,228.373 C589.89,228.43 590.84,227.904 591.259,228.053 C591.677,228.203 592.316,227.996 592.637,228.106 C592.957,228.215 594.516,228.74 594.516,228.74 L594.551,227.745" fill="#F3B798"/>
    <path d="M592.789,228.435 L592.286,228.248 C592.286,228.248 592.914,226.776 593.187,226.812 C593.502,226.853 593.896,226.957 593.896,226.957 L592.789,228.435" fill="#EFE0D8"/>
    <path d="M592.674,228.689 L593.743,226.713 L595.89,227.004 L594.73,229.289 L592.674,228.689" fill="#E2AB6E"/>
    <path d="M587.102,231.534 C587.102,231.534 586.282,230.795 585.884,230.486 C585.488,230.177 584.743,229.269 584.633,229.216 C584.523,229.163 583.1,226.244 582.869,226.126 C582.637,226.009 583.088,225.616 583.579,226.323 C584.07,227.029 584.932,227.937 585.26,227.872 C585.588,227.805 585.306,226.918 585.52,226.728 C585.734,226.539 585.724,226.672 585.829,226.773 C585.933,226.873 585.807,227.975 586.111,228.311 C586.415,228.647 586.468,229.33 586.696,229.589 C586.924,229.848 588.025,231.113 588.025,231.113 L587.102,231.534" fill="#F3B798"/>
    <path d="M604.768,270.996 C604.768,270.996 604.946,272.228 604.968,272.413 C604.991,272.598 606.942,272.303 606.942,272.303 L607.1,270.837 C607.1,270.837 605.012,270.822 604.768,270.996" fill="#545B86"/>
    <path d="M604.947,272.256 C604.947,272.256 604.329,272.998 603.731,273.322 C603.132,273.645 602.193,273.773 601.839,274.108 C601.583,274.35 600.91,275.39 603.393,275.37 C605.877,275.348 607.075,275.516 607.341,275.118 C607.608,274.718 606.957,272.172 606.957,272.172 C606.957,272.172 606.368,272.384 604.947,272.256" fill="#363B59"/>
    <path d="M590.784,270.996 C590.784,270.996 590.96,272.228 590.983,272.413 C591.005,272.598 592.957,272.303 592.957,272.303 L593.115,270.837 C593.115,270.837 591.028,270.822 590.784,270.996" fill="#545B86"/>
    <path d="M590.962,272.256 C590.962,272.256 590.344,272.998 589.746,273.322 C589.148,273.645 586.947,273.911 586.593,274.246 C586.337,274.488 585.914,275.46 589.409,275.37 C591.891,275.305 593.09,275.516 593.356,275.118 C593.623,274.718 592.971,272.172 592.971,272.172 C592.971,272.172 592.417,272.399 590.962,272.256" fill="#363B59"/>
    <path d="M603.152,239.347 C603.152,239.347 604.986,242.261 604.849,244.895 C604.712,247.529 605.514,250.405 605.79,253.156 C606.097,256.223 607.354,263.485 607.4,265.125 C607.445,266.766 607.204,272.005 607.204,272.005 L604.688,272.063 C604.688,272.063 602.575,259.368 602.028,258.073 C601.481,256.778 598.766,247.542 598.675,246.506 C598.584,245.47 603.152,239.347 603.152,239.347" fill="#363B59"/>
    <path d="M593.498,239.742 C593.498,239.742 592.116,246.961 591.933,248.573 C591.75,250.185 591.629,256.374 591.538,257.381 C591.447,258.389 590.93,270.566 590.444,272.063 L593.66,272.063 C593.66,272.063 596.129,263.211 596.129,259.023 C596.129,254.834 598.037,249.917 599.268,247.154 C600.499,244.39 603.318,244.325 604.075,239.198 C604.075,239.198 594.523,238.116 593.498,239.742" fill="#363B59"/>
    <path d="M600.092,214.85 C600.092,214.85 597.63,213.93 596.496,215.804 C595.36,217.678 595.469,221.429 596.71,221.89 C597.951,222.352 599.815,222.111 600.451,220.938 C601.085,219.766 601.659,218.071 601.631,216.938 C601.604,215.805 600.738,215.176 600.092,214.85" fill="#F3B798"/>
    <path d="M596.978,221.976 C596.978,221.976 597.08,222.641 596.911,222.968 C596.742,223.295 600.1,223.304 600.1,223.304 C600.1,223.304 600.373,221.524 600.889,220.019 C601.406,218.514 596.978,221.976 596.978,221.976" fill="#F3B798"/>
    <path d="M600.889,220.019 C600.889,220.019 600.658,220.401 599.711,220.252 C598.765,220.105 597.611,218.845 597.216,218.707 C596.821,218.569 596.817,218.337 596.817,218.337 L596.57,218.699 L596.15,218.725 C596.15,218.725 596.533,217.599 595.956,217.139 C595.378,216.68 596.554,213.495 599.589,214.555 C599.589,214.555 601.919,215.198 601.835,216.523 C601.75,217.849 601.411,219.359 600.889,220.019" fill="#4A5059"/>
    <path d="M596.711,222.929 C596.711,222.929 596.722,222.303 597.005,222.244 C597.29,222.183 600.135,221.91 600.483,222.046 L600.483,222.775 C600.483,222.775 599.813,223.188 596.711,222.929" fill="#E8DBD4"/>
    <path d="M596.879,217.855 C596.933,217.633 597.499,216.998 597.714,217.678 C597.931,218.358 597.387,219.273 597.084,219.195 C596.781,219.117 596.746,218.418 596.879,217.855" fill="#F3B798"/>
    <path d="M585.415,230.32 L585.42,230.32 L585.415,230.32" fill="#41476A"/>
    <path d="M605.221,246.289 C605.221,246.289 603.711,246.733 601.137,247.017 C598.563,247.3 592.13,246.915 592.09,246.61 C592.049,246.306 593.474,235.286 593.393,234.718 C593.312,234.15 593.268,232.128 593.268,232.128 C593.237,232.682 592.672,234.946 591.991,236.179 C591.745,236.625 590.918,238.022 590.52,237.705 C588.593,236.165 585.61,230.369 585.42,230.32 C585.58,230.25 586.834,229.672 587.01,229.614 C587.165,229.562 588.555,231.034 589.397,231.947 C589.773,232.353 590.04,232.649 590.04,232.649 C590.283,232.101 591.168,228.654 591.444,227.46 C592.065,224.77 591.969,224.658 591.969,224.658 C593.853,224.088 596.711,222.929 596.711,222.929 L600.483,222.775 C600.483,222.775 603.945,223.538 605.308,224.153 C605.438,224.211 605.438,227.242 605.793,228.036 L604.662,230.42 C604.662,230.42 604.01,235.144 603.874,237.245 C603.812,238.209 605.221,246.289 605.221,246.289" fill="#41476A"/>
    <path d="M605.95,231.969 C605.851,232.288 605.404,232.556 605.114,232.673 C604.928,232.748 604.719,232.773 604.51,232.734 L604.362,232.707 L604.362,232.706 L601.777,232.227 C601.777,232.227 601.211,225.713 605.308,224.153 C605.416,224.189 606.855,229.053 605.95,231.969" fill="#41476A"/>
    <path d="M605.114,232.673 L605.114,232.673 C604.928,232.748 604.719,232.773 604.51,232.734 L604.362,232.707 L604.362,232.706 L604.617,229.378 L605.114,232.673" fill="#313651"/>
    <path d="M590.04,232.649 L589.723,233.987 C589.723,233.987 589.38,232.644 589.397,231.947 C589.773,232.353 590.04,232.649 590.04,232.649" fill="#313651"/>
    <path d="M600.792,215.071 C600.792,215.071 604.019,214.699 600.848,220.087 L600.792,215.071" fill="#4A5059"/>
    <path d="M584.334,223.304 L584.007,222.741 L586.59,221.85 L586.917,222.41 L584.334,223.304" fill="#363B59"/>
    <path d="M595.891,82.537 C595.891,103.271 612.699,120.079 633.432,120.079 C654.166,120.079 670.973,103.271 670.973,82.537 C670.973,61.804 654.166,44.996 633.432,44.996 C612.699,44.996 595.891,61.804 595.891,82.537 z" fill="url(#Gradient_13)"/>
    <path d="M610.717,344.907 C610.717,348.168 611.219,351.316 612.144,354.27 C633.418,351.411 653.579,350.767 671.292,355.452 C672.479,352.158 673.122,348.608 673.122,344.907 C673.122,327.674 659.152,313.704 641.919,313.704 C624.687,313.704 610.717,327.674 610.717,344.907 z" fill="url(#Gradient_14)"/>
  </g>
</svg>
